PathFileType	4	(X/Y/Z)	D:\TRACE\spotREDO_2-26-24\spot_Both_Motion_3_5-v60.trc
DataRate	CameraRate	NumFrames	NumMarkers	Units	OrigDataRate	OrigDataStartFrame	OrigNumFrames
100.00	100.00	      38	9	mm	100.00	3501	      7000
Frame#	Time	front left toe			Front right toe			aft left toe			aft right toe			Arm			FL body			FR body			AL Body			AR Body			
		X1	Y1	Z1	X2	Y2	Z2	X3	Y3	Z3	X4	Y4	Z4	X5	Y5	Z5	X6	Y6	Z6	X7	Y7	Z7	X8	Y8	Z8	X9	Y9	Z9	

3501	35.000	-207.09955	28.29824	-442.54675	203.30902	30.87696	-401.86542	-250.29855	12.05937	118.39275	154.44102	24.32221	197.35770	72.35987	744.22711	-729.38300	-114.77062	603.11353	-488.68872	40.00621	606.84052	-474.95612	-198.91525	551.98016	390.16193	-51.65474	544.61664	405.17825	
3502	35.010	-207.15685	28.02961	-442.72632	203.51067	30.56672	-401.84888	-250.43369	12.01443	118.28912	154.43124	24.46288	197.21696	72.13429	744.45190	-729.59430	-115.40214	603.26923	-489.28027	39.05093	607.19287	-475.68274	-199.96860	552.37244	389.30984	-52.78142	544.97449	404.31192	
3503	35.020	-207.19334	27.67111	-442.83170	203.27321	30.69957	-402.02798	-250.66560	11.97665	118.20266	154.35992	24.53491	197.10420	71.57052	744.65350	-729.64868	-116.49104	603.59460	-490.21420	38.37883	607.51257	-476.31500	-201.05643	552.71021	388.51022	-53.78242	545.46100	403.72073	
3504	35.030	-207.29619	27.51565	-442.93069	203.30885	30.67185	-402.06314	-250.53976	11.86093	118.00589	154.37158	24.59015	197.01382	70.89292	744.81183	-730.01880	-116.75657	603.72186	-490.83197	37.43900	607.98132	-477.29257	-201.86136	553.16486	387.81799	-54.72262	546.11798	402.98154	
3505	35.040	-207.26282	27.51707	-442.98795	203.14270	30.48011	-402.22479	-250.28664	12.22129	117.77250	154.45129	24.79518	196.92700	70.42814	744.93091	-730.50482	-117.60391	604.03418	-491.75189	37.44248	608.30731	-477.97861	-202.26376	553.48120	387.10355	-55.19670	546.74188	402.11819	
3506	35.050	-207.32394	27.44077	-443.01471	203.22812	30.49857	-402.38257	-250.39787	12.18244	117.88272	154.46574	24.90495	196.77464	69.53104	745.03790	-730.60413	-118.14774	604.18542	-492.54236	36.71618	608.50836	-478.84613	-202.81920	553.85895	386.24805	-55.15963	547.14008	401.56689	
3507	35.060	-207.33266	27.24197	-443.13196	203.12476	30.20596	-402.76538	-250.49127	12.14391	117.77644	154.51817	24.71805	196.67030	69.38456	745.05670	-730.54993	-118.65395	604.12585	-493.20215	36.20838	608.60675	-479.66837	-203.11568	554.19666	385.50552	-55.74644	547.67834	400.54562	
3508	35.070	-207.48956	27.00575	-443.28101	203.15742	30.16902	-402.85159	-250.47641	12.01861	117.65479	154.56311	24.73288	196.44611	69.34109	744.92896	-730.55896	-119.22300	604.01855	-493.71954	35.75962	608.62537	-480.35803	-203.36333	554.46057	384.73550	-55.84018	547.99188	399.90573	
3509	35.080	-207.49551	26.84233	-443.36035	203.03882	30.01912	-403.03180	-250.33398	12.14105	117.49371	154.67796	24.62172	196.26691	69.47911	744.78589	-730.57202	-119.43132	603.97382	-494.70706	35.31804	608.65137	-481.19199	-203.32010	554.79742	384.00824	-55.79105	548.29852	399.18246	
3510	35.090	-207.51785	26.75221	-443.44171	203.05060	29.89254	-403.11746	-250.24471	12.57130	117.31348	154.88141	24.65454	196.21320	69.74468	744.60657	-730.66888	-119.76044	604.13324	-495.63654	35.15443	608.76959	-481.99496	-203.05046	555.20490	383.37115	-55.54191	548.70276	398.23895	
3511	35.100	-207.51695	26.71020	-443.47250	203.08240	29.86444	-403.23755	-250.30011	12.30485	117.38013	154.98317	24.68791	196.06429	69.93902	744.58252	-730.75262	-119.93040	604.23938	-496.37714	34.66991	608.84845	-482.99136	-202.95583	555.68640	382.59518	-55.21797	549.32355	397.68933	
3512	35.110	-207.56305	26.55952	-443.60922	203.34795	30.05179	-402.89798	-250.29749	12.55881	117.42851	155.05888	24.73932	195.97511	70.24101	744.40515	-730.68970	-120.10504	604.18768	-496.89087	35.61337	608.64539	-483.46140	-203.00703	556.07458	382.01849	-55.47189	549.79486	397.05811	
3513	35.120	-207.58679	26.23767	-443.78888	203.47318	30.04720	-402.88980	-250.32924	12.59562	117.28076	155.03421	24.78182	195.81396	70.64998	744.08209	-730.69452	-119.83434	603.90399	-497.64322	35.62939	608.50848	-484.17841	-202.72816	556.58252	381.18619	-55.35860	550.00446	396.08228	
3514	35.130	-207.49957	26.09643	-443.89282	203.39415	29.90896	-402.83023	-250.33752	12.66794	117.14193	154.94354	24.74620	195.70004	71.12968	743.80194	-730.72449	-119.37300	603.83154	-498.69421	35.79591	608.41711	-484.95865	-202.67288	556.88696	380.42780	-55.38398	550.33105	395.41785	
3515	35.140	-207.44829	26.06448	-444.00500	203.38074	29.71144	-402.95056	-250.27911	12.74524	116.99317	155.13110	24.87656	195.71974	71.50407	743.71289	-730.85883	-119.07561	603.92072	-499.34290	36.50180	608.42578	-485.77530	-202.64525	557.23669	379.71640	-55.23422	550.88623	394.63156	
3516	35.150	-207.43001	26.07110	-444.07776	203.16406	28.99496	-403.38571	-250.25696	12.94308	116.95267	155.07275	25.04482	195.75162	71.67905	743.67004	-731.01910	-118.21644	604.00128	-500.20633	37.08151	608.38348	-486.32129	-202.70667	557.70428	378.78787	-55.37944	551.22211	394.05624	
3517	35.160	-207.31642	26.03954	-444.27454	203.39000	29.12570	-403.13870	-250.23041	12.99848	116.86955	155.08058	25.16556	195.73016	71.71069	743.55634	-731.27704	-117.51588	604.10077	-500.81598	37.65063	608.42651	-487.04877	-202.99550	557.97406	378.18399	-55.15961	551.42041	393.46130	
3518	35.170	-207.13867	25.99257	-444.72037	203.26262	28.52308	-403.61124	-250.28914	13.10246	116.65407	154.95642	25.25635	195.51306	71.38939	743.42334	-731.64990	-116.56935	603.84131	-501.10928	38.79280	608.12268	-487.45013	-203.16658	558.37054	377.30551	-55.28767	551.55432	392.82748	
3519	35.180	-206.96767	25.78386	-444.92245	203.66162	28.06973	-403.36823	-250.35413	13.14444	116.50569	154.71454	25.16712	195.25197	70.81540	743.27466	-732.12799	-114.90038	603.20892	-501.74811	39.55240	607.68250	-487.95621	-203.03526	558.66577	376.55423	-55.45924	551.88324	392.33582	
3520	35.190	-206.80638	25.57354	-445.18518	203.83589	27.70096	-403.26303	-250.38287	13.18756	116.41228	154.53691	25.07539	195.14677	69.38679	743.24811	-733.19147	-113.54922	602.98016	-502.44531	41.42395	606.96057	-488.12149	-202.96628	559.00830	375.86023	-55.61618	552.02576	391.86151	
3521	35.200	-206.63815	25.50671	-445.33984	203.90283	27.38096	-403.19958	-250.53622	13.20918	116.06044	154.48141	25.08101	195.12032	67.45920	743.25800	-733.75208	-112.07432	602.93396	-503.26419	42.46642	606.65503	-488.49176	-203.10889	559.27905	375.29178	-55.93309	552.09192	391.37646	
3522	35.210	-206.58966	25.62133	-445.47025	204.18251	26.81052	-403.09921	-250.38957	13.43063	115.62770	154.19972	24.86127	194.86009	64.55371	743.20361	-734.09680	-110.98260	602.99982	-503.50763	44.13611	606.45221	-488.45761	-202.95067	559.43311	374.83646	-55.58383	551.96960	391.06085	
3523	35.220	-206.44368	25.56609	-445.51971	204.19231	26.42879	-403.19223	-250.50717	13.17704	115.91117	154.80008	25.53879	195.42957	61.67861	743.25549	-734.69928	-109.93037	602.91595	-503.82220	45.23225	606.21887	-488.65952	-202.38445	559.41394	374.54425	-55.21766	551.93585	390.90515	
3524	35.230	-206.43076	25.30113	-445.64429	203.76472	26.40664	-403.43539	-250.41925	13.37961	115.71813	154.90649	25.56952	195.39006	60.31079	743.04492	-734.52313	-109.20046	602.55316	-504.04340	45.50850	605.91943	-489.07968	-201.23288	559.34357	374.44879	-54.33171	551.95142	390.81442	
3525	35.240	-206.68349	24.73728	-445.73593	203.93536	26.10610	-403.60623	-250.33592	13.44228	115.68816	155.14409	25.61850	195.35167	58.94473	743.01514	-734.48303	-109.07745	602.19733	-504.09076	46.02503	605.49072	-489.25137	-199.98195	559.38123	374.35547	-52.53292	551.93213	390.56854	
3526	35.250	-206.87399	24.20835	-445.61038	203.61455	25.96322	-403.92606	-250.03796	13.67665	115.92773	155.54512	25.63733	195.20702	58.91655	742.80835	-734.17120	-109.30205	601.68140	-504.17657	45.80270	605.18311	-489.75299	-198.59109	559.49664	374.54211	-50.97213	551.99396	390.39014	
3527	35.260	-206.88857	23.90944	-445.37775	203.43100	25.82474	-404.21875	-249.66045	13.99141	116.05139	155.99443	25.61811	195.14435	59.28868	742.55182	-733.76001	-109.85275	601.50189	-504.23431	45.40806	604.94360	-490.28870	-196.54913	559.57306	374.76715	-49.09392	552.26013	390.27460	
3528	35.270	-206.94086	23.54409	-445.34088	203.42006	25.50040	-404.60266	-249.38457	14.29589	115.88316	156.38609	25.60210	195.00221	60.11349	742.36383	-733.37067	-110.25827	601.18738	-504.16562	45.03151	604.73108	-490.57980	-194.82837	559.68793	374.95059	-47.01679	552.42291	390.24515	
3529	35.280	-207.03998	23.32432	-445.34277	203.46852	25.71438	-404.71219	-249.08989	14.50414	115.79985	156.72318	25.62782	194.84380	61.66583	741.72412	-732.37860	-110.32159	600.74323	-504.10516	44.80412	604.37390	-490.83420	-193.26218	559.67334	375.07626	-45.46309	552.09711	390.18369	
3530	35.290	-206.95538	23.01210	-445.37872	203.41197	25.59615	-404.87976	-248.97043	14.53717	115.77477	156.88940	25.59245	194.76447	62.51992	741.59161	-731.91827	-110.36463	600.37183	-504.11374	44.74778	603.92383	-491.03156	-191.94949	559.51636	375.33478	-44.03664	552.14441	390.13339	
3531	35.300	-206.80429	22.74830	-445.49579	203.29863	25.57040	-404.98663	-249.07295	14.73721	115.83424	156.79321	25.65631	194.54234	63.86512	741.20715	-731.37585	-109.95451	600.10150	-504.01471	45.17688	603.56317	-491.05557	-189.62590	559.11755	375.43713	-42.68817	552.06219	390.03403	
3532	35.310	-206.70567	22.61527	-445.60159	203.46754	25.27401	-405.04471	-249.03949	14.72653	115.64516	156.76013	25.69838	194.50397	64.50906	741.12878	-731.02802	-109.14580	599.97522	-503.99362	45.81618	603.26611	-491.01062	-188.62611	558.97101	375.53522	-42.06928	551.94727	390.13486	
3533	35.320	-206.44307	22.55634	-445.75262	203.62764	24.87191	-404.81516	-249.04527	14.78472	115.56491	156.82916	25.84764	194.53236	65.07146	741.06348	-730.92126	-108.26436	600.13043	-503.99466	47.21349	603.12225	-490.70044	-188.16656	558.76801	375.56152	-41.79840	551.65369	390.26382	
3534	35.330	-206.28221	22.59450	-445.94360	203.70874	24.14960	-404.91815	-249.04535	14.79400	115.45646	156.89394	26.00860	194.58379	65.22765	741.04523	-730.92981	-106.64803	599.67987	-503.37219	48.07747	603.06042	-490.53171	-187.89832	558.42749	375.60944	-41.65850	551.33362	390.56689	
3535	35.340	-205.98097	22.46675	-446.13538	204.16705	23.69470	-404.79843	-249.10298	14.76927	115.37627	156.63712	26.00340	194.65759	65.01715	741.14734	-731.00562	-104.77760	599.61047	-503.28503	50.36900	602.71838	-489.74802	-187.96840	558.15247	375.67093	-41.66931	550.92450	390.97284	
3536	35.350	-205.56371	22.23409	-446.33807	204.80937	23.47208	-404.42429	-249.21837	14.76306	115.09975	156.56879	26.13575	194.68832	64.34633	741.23309	-731.22736	-103.18026	599.50409	-503.03690	51.66327	602.37225	-489.19897	-187.97925	558.01282	375.73889	-41.81648	550.56671	391.32181	
3537	35.360	-205.21883	22.16401	-446.52487	205.02303	22.89287	-404.29596	-249.20317	14.71910	115.07143	156.62650	26.32654	194.76215	63.86123	741.21289	-731.68860	-101.44246	599.40979	-503.03656	54.03564	602.11566	-488.78073	-187.65747	557.82574	376.02615	-41.52926	550.33197	391.66977	
3538	35.370	-205.08891	22.15350	-446.59137	205.31833	22.50745	-404.32266	-249.28828	14.94079	114.86150	156.52151	26.39196	194.74330	62.98383	741.26221	-732.21423	-99.54314	598.63947	-502.12335	55.30519	601.83600	-488.14554	-187.11575	557.65051	376.29526	-41.16692	550.10101	392.12381	
